<svg width="16" height="15" viewBox="0 0 16 15" fill="none" xmlns="http://www.w3.org/2000/svg">
<path fill-rule="evenodd" clip-rule="evenodd" d="M8.51012 4.296V5.993C8.86549 5.45168 9.35533 5.0119 9.93169 4.71671C10.508 4.42152 11.1512 4.28103 11.7981 4.309C15.2531 4.309 16.0001 6.469 16.0001 9.279V15H12.8001V9.928C12.8001 8.718 12.5561 7.162 10.6721 7.162C8.84512 7.162 8.53312 8.479 8.53312 9.838V15H5.34312V4.296H8.51012ZM3.20011 1.606C3.19972 1.923 3.10575 2.23284 2.93 2.49665C2.75424 2.76047 2.50451 2.96653 2.21211 3.089C1.91984 3.21048 1.59804 3.24226 1.28765 3.18029C0.977261 3.11832 0.692329 2.9654 0.469115 2.741C0.24548 2.51646 0.0932291 2.23081 0.0315068 1.91997C-0.0302155 1.60913 0.00134712 1.28698 0.122225 0.994027C0.243103 0.701077 0.4479 0.450407 0.710862 0.273539C0.973823 0.0966713 1.28321 0.0015024 1.60011 0C1.81074 -1.48089e-06 2.01928 0.0415816 2.2138 0.122364C2.40831 0.203147 2.58496 0.321539 2.73361 0.470748C2.88227 0.619958 2.99999 0.79705 3.08005 0.991864C3.1601 1.18668 3.2009 1.39538 3.20011 1.606Z" fill="black"/>
<path d="M3.2 4.30902H0V15H3.2V4.30902Z" fill="black"/>
</svg>
