<svg width="22" height="14" viewBox="0 0 22 14" fill="none" xmlns="http://www.w3.org/2000/svg">
<path d="M6.3993 0C7.03397 0 7.62096 0.0499999 8.1573 0.198C8.69463 0.297 9.13463 0.495 9.52496 0.742C9.91629 0.989333 10.2093 1.33567 10.404 1.781C10.5996 2.226 10.698 2.771 10.698 3.364C10.698 4.057 10.551 4.65 10.2093 5.095C9.91629 5.541 9.42763 5.936 8.84163 6.233C9.67196 6.481 10.3066 6.926 10.698 7.519C11.0893 8.112 11.3326 8.85499 11.3326 9.69599C11.3326 10.389 11.1856 10.982 10.9413 11.477C10.698 11.972 10.3066 12.417 9.86663 12.714C9.38848 13.032 8.8602 13.266 8.3043 13.406C7.7183 13.555 7.1323 13.654 6.5463 13.654H0V0H6.3993ZM6.00798 5.54C6.54531 5.54 6.9853 5.392 7.32697 5.145C7.66864 4.898 7.81563 4.452 7.81563 3.908C7.81563 3.611 7.76597 3.314 7.66864 3.117C7.5713 2.92 7.4243 2.77 7.22963 2.622C7.03059 2.50944 6.81651 2.42626 6.59397 2.375C6.34964 2.325 6.1063 2.325 5.81231 2.325H2.97965V5.541L6.00798 5.54ZM6.15497 11.378C6.44797 11.378 6.74097 11.328 6.9853 11.279C7.22963 11.229 7.47397 11.131 7.66864 10.982C7.86688 10.8364 8.03322 10.6512 8.1573 10.438C8.25463 10.191 8.35296 9.894 8.35296 9.548C8.35296 8.855 8.1573 8.36 7.76696 8.014C7.37564 7.717 6.83831 7.569 6.20364 7.569H2.97965V11.379L6.15497 11.378ZM15.5826 11.328C15.9733 11.724 16.5593 11.922 17.3406 11.922C17.8779 11.922 18.3666 11.774 18.7569 11.527C19.1483 11.2297 19.3926 10.9327 19.4899 10.636H21.8836C21.4922 11.823 20.9062 12.664 20.1256 13.208C19.3429 13.703 18.4153 14 17.2919 14C16.5733 14.0011 15.8608 13.8668 15.1913 13.604C14.5885 13.3777 14.0512 13.0037 13.6279 12.516C13.1734 12.0613 12.8379 11.5003 12.6516 10.883C12.4073 10.24 12.309 9.548 12.309 8.756C12.309 8.014 12.4073 7.322 12.6516 6.678C12.886 6.05759 13.234 5.48703 13.6776 4.996C14.1166 4.551 14.6539 4.156 15.2399 3.908C15.8923 3.6443 16.589 3.50984 17.2919 3.512C18.1223 3.512 18.8552 3.661 19.4899 4.007C20.1256 4.353 20.6132 4.749 21.0036 5.343C21.3949 5.887 21.6889 6.53 21.8836 7.223C21.9809 7.915 22.0296 8.608 21.9809 9.399H14.8983C14.8983 10.191 15.1913 10.933 15.5826 11.329M18.6596 6.135C18.3179 5.789 17.7806 5.591 17.1449 5.591C16.7722 5.58537 16.4036 5.67009 16.0703 5.838C15.7773 5.987 15.5826 6.185 15.3869 6.383C15.206 6.57346 15.0869 6.81479 15.0453 7.075C14.9956 7.323 14.9469 7.52 14.9469 7.718H19.3429C19.2456 6.976 19.0013 6.482 18.6596 6.135ZM14.3609 0.94H19.8316V2.276H14.3619L14.3609 0.94Z" fill="black"/>
</svg>
