<svg width="19" height="18" viewBox="0 0 19 18" fill="none" xmlns="http://www.w3.org/2000/svg">
<path fill-rule="evenodd" clip-rule="evenodd" d="M10.7081 6.61087L16.9359 0H19L18.9917 0.00912992L11.6254 7.83096L18.3694 16.7965C18.4509 16.9045 18.5018 17.0324 18.5167 17.1669C18.5316 17.3014 18.51 17.4375 18.4542 17.5607C18.3983 17.6839 18.3104 17.7898 18.1995 17.8671C18.0886 17.9444 17.959 17.9903 17.8242 18H13.6016C13.4946 17.9926 13.3903 17.9622 13.2961 17.9107C13.2019 17.8593 13.1198 17.7881 13.0556 17.702L8.31012 11.3933L2.11875 18H0L7.39285 10.1732L0.648801 1.20764C0.564611 1.09597 0.513197 0.962986 0.500344 0.823646C0.487491 0.684307 0.513708 0.54414 0.576046 0.418911C0.638384 0.293682 0.734369 0.188361 0.853206 0.114794C0.972042 0.0412276 1.10901 0.00233451 1.24871 0.00248999H5.36276C5.59891 0.00248999 5.82098 0.113709 5.96267 0.302117L10.7081 6.61087ZM10.0759 8.27085C10.0551 8.24627 10.0357 8.2205 10.0179 8.19367L4.98822 1.50726H2.75512L14.03 16.4969H16.2639L10.0759 8.27085Z" fill="black"/>
</svg>
